<svg width="171" height="44" viewBox="0 0 171 44" fill="none" xmlns="http://www.w3.org/2000/svg">
<rect x="0.5" y="0.515625" width="169.406" height="42" fill="white" fill-opacity="0.01"/>
<rect x="0.5" y="0.515625" width="169.406" height="42" stroke="black"/>
<path d="M26.4199 25.7269C25.6099 25.7269 24.8899 25.5169 24.2599 25.0969C23.6299 24.6769 23.1349 24.0819 22.7749 23.3119C22.4149 22.5319 22.2349 21.6169 22.2349 20.5669C22.2349 19.4469 22.4249 18.4619 22.8049 17.6119C23.1849 16.7519 23.7299 16.0819 24.4399 15.6019C25.1599 15.1119 26.0249 14.8669 27.0349 14.8669C27.6849 14.8669 28.2649 14.9469 28.7749 15.1069C29.2849 15.2669 29.7649 15.4719 30.2149 15.7219L29.6899 16.9069C29.2699 16.6769 28.8399 16.4869 28.3999 16.3369C27.9699 16.1869 27.4899 16.1119 26.9599 16.1119C26.3299 16.1119 25.7699 16.2819 25.2799 16.6219C24.7899 16.9519 24.3999 17.4419 24.1099 18.0919C23.8299 18.7419 23.6899 19.5369 23.6899 20.4769C23.6899 21.3169 23.8199 22.0369 24.0799 22.6369C24.3399 23.2269 24.6999 23.6819 25.1599 24.0019C25.6199 24.3219 26.1499 24.4819 26.7499 24.4819C27.3099 24.4819 27.8049 24.3669 28.2349 24.1369C28.6749 23.8969 29.0199 23.6519 29.2699 23.4019V21.1069H27.0949V19.9819H30.6199V25.5469H29.3599V24.4969C29.0099 24.8069 28.5849 25.0919 28.0849 25.3519C27.5849 25.6019 27.0299 25.7269 26.4199 25.7269ZM35.9123 25.7269C34.7923 25.7269 33.9023 25.3719 33.2423 24.6619C32.5923 23.9419 32.2673 22.9369 32.2673 21.6469C32.2673 20.8669 32.4123 20.1719 32.7023 19.5619C33.0023 18.9419 33.4173 18.4569 33.9473 18.1069C34.4773 17.7469 35.0923 17.5669 35.7923 17.5669C36.5423 17.5669 37.1623 17.7319 37.6523 18.0619C38.1523 18.3819 38.5273 18.8169 38.7773 19.3669C39.0273 19.9169 39.1523 20.5219 39.1523 21.1819C39.1523 21.5319 39.1373 21.8719 39.1073 22.2019H33.6473C33.7373 22.9319 33.9923 23.5019 34.4123 23.9119C34.8323 24.3219 35.3873 24.5269 36.0773 24.5269C36.5273 24.5269 36.9323 24.4819 37.2923 24.3919C37.6523 24.2919 37.9973 24.1669 38.3273 24.0169L38.6423 25.1719C38.2823 25.3319 37.8773 25.4619 37.4273 25.5619C36.9773 25.6719 36.4723 25.7269 35.9123 25.7269ZM33.6323 21.1069H37.9073C37.9073 20.3469 37.7173 19.7619 37.3373 19.3519C36.9573 18.9419 36.4323 18.7369 35.7623 18.7369C35.1823 18.7369 34.7023 18.9419 34.3223 19.3519C33.9423 19.7519 33.7123 20.3369 33.6323 21.1069ZM43.6815 25.7269C42.9315 25.7269 42.3365 25.4819 41.8965 24.9919C41.4665 24.4919 41.2515 23.7819 41.2515 22.8619V19.2019H39.9015V18.0319H41.2815L41.5665 15.5719H42.6015V18.0319H44.7615V19.2019H42.6015V22.9669C42.6015 23.5469 42.7215 23.9519 42.9615 24.1819C43.2115 24.4119 43.5065 24.5269 43.8465 24.5269C44.0965 24.5269 44.3315 24.4869 44.5515 24.4069C44.7815 24.3269 44.9915 24.2319 45.1815 24.1219L45.5565 25.2019C45.3565 25.3219 45.0865 25.4369 44.7465 25.5469C44.4065 25.6669 44.0515 25.7269 43.6815 25.7269ZM51.6054 29.0269C51.3054 29.0269 51.0404 28.9969 50.8104 28.9369C50.5904 28.8769 50.4154 28.8069 50.2854 28.7269L50.5854 27.6019C50.7054 27.6719 50.8554 27.7319 51.0354 27.7819C51.2154 27.8319 51.4154 27.8569 51.6354 27.8569C52.0554 27.8569 52.4304 27.7219 52.7604 27.4519C53.0904 27.1819 53.4054 26.6519 53.7054 25.8619L54.0504 24.9619H53.3304L50.2854 18.1069L51.4854 17.5669L54.3954 24.0619L56.6604 17.6269L57.9054 18.1069L55.0404 25.9369C54.7504 26.7369 54.4354 27.3619 54.0954 27.8119C53.7554 28.2619 53.3804 28.5769 52.9704 28.7569C52.5604 28.9369 52.1054 29.0269 51.6054 29.0269ZM62.254 25.7269C61.514 25.7269 60.849 25.5569 60.259 25.2169C59.669 24.8669 59.204 24.3869 58.864 23.7769C58.534 23.1569 58.369 22.4469 58.369 21.6469C58.369 20.8069 58.539 20.0819 58.879 19.4719C59.219 18.8619 59.684 18.3919 60.274 18.0619C60.864 17.7319 61.524 17.5669 62.254 17.5669C62.984 17.5669 63.639 17.7319 64.219 18.0619C64.809 18.3919 65.274 18.8619 65.614 19.4719C65.964 20.0719 66.139 20.7869 66.139 21.6169C66.139 22.4469 65.969 23.1719 65.629 23.7919C65.289 24.4019 64.824 24.8769 64.234 25.2169C63.654 25.5569 62.994 25.7269 62.254 25.7269ZM62.254 24.5269C63.044 24.5269 63.659 24.2619 64.099 23.7319C64.539 23.1919 64.759 22.4969 64.759 21.6469C64.759 21.1269 64.649 20.6519 64.429 20.2219C64.209 19.7819 63.909 19.4319 63.529 19.1719C63.159 18.9019 62.734 18.7669 62.254 18.7669C61.464 18.7669 60.849 19.0269 60.409 19.5469C59.969 20.0669 59.749 20.7569 59.749 21.6169C59.749 22.1369 59.859 22.6219 60.079 23.0719C60.299 23.5119 60.594 23.8669 60.964 24.1369C61.344 24.3969 61.774 24.5269 62.254 24.5269ZM70.4839 25.7269C70.0339 25.7269 69.6089 25.6319 69.2089 25.4419C68.8089 25.2519 68.4839 24.9469 68.2339 24.5269C67.9839 24.0969 67.8589 23.5269 67.8589 22.8169V17.7469H69.2089V22.6369C69.2089 23.2469 69.3389 23.7169 69.5989 24.0469C69.8589 24.3669 70.2389 24.5269 70.7389 24.5269C71.1489 24.5269 71.5439 24.4469 71.9239 24.2869C72.3139 24.1169 72.6589 23.8919 72.9589 23.6119V17.7469H74.3089V23.5219C74.3089 23.9519 74.3989 24.2369 74.5789 24.3769C74.7689 24.5069 74.9739 24.5719 75.1939 24.5719L74.9089 25.6219C73.9789 25.6219 73.4039 25.2519 73.1839 24.5119C72.8339 24.8719 72.4289 25.1669 71.9689 25.3969C71.5089 25.6169 71.0139 25.7269 70.4839 25.7269ZM76.9866 25.5469V17.7469H78.2916V19.4419C78.4216 19.1119 78.5966 18.8069 78.8166 18.5269C79.0366 18.2369 79.3116 18.0069 79.6416 17.8369C79.9716 17.6569 80.3566 17.5669 80.7966 17.5669C80.9466 17.5669 81.0966 17.5769 81.2466 17.5969C81.3966 17.6069 81.5216 17.6269 81.6216 17.6569L81.2166 19.0519C81.0266 18.9719 80.8016 18.9319 80.5416 18.9319C80.1716 18.9319 79.8166 19.0369 79.4766 19.2469C79.1466 19.4569 78.8716 19.7819 78.6516 20.2219C78.4416 20.6619 78.3366 21.2219 78.3366 21.9019V25.5469H76.9866ZM90.2049 25.7269C89.4549 25.7269 88.8599 25.4819 88.4199 24.9919C87.9899 24.4919 87.7749 23.7819 87.7749 22.8619V19.2019H86.4249V18.0319H87.8049L88.0899 15.5719H89.1249V18.0319H91.2849V19.2019H89.1249V22.9669C89.1249 23.5469 89.2449 23.9519 89.4849 24.1819C89.7349 24.4119 90.0299 24.5269 90.3699 24.5269C90.6199 24.5269 90.8549 24.4869 91.0749 24.4069C91.3049 24.3269 91.5149 24.2319 91.7049 24.1219L92.0799 25.2019C91.8799 25.3219 91.6099 25.4369 91.2699 25.5469C90.9299 25.6669 90.5749 25.7269 90.2049 25.7269ZM93.4368 25.5469V14.4469H94.7868V18.9919C95.0668 18.5819 95.4218 18.2419 95.8518 17.9719C96.2818 17.7019 96.7868 17.5669 97.3668 17.5669C98.2468 17.5669 98.9018 17.8319 99.3318 18.3619C99.7718 18.8919 99.9918 19.5919 99.9918 20.4619V25.5469H98.6418V20.6119C98.6418 20.0519 98.5118 19.6019 98.2518 19.2619C97.9918 18.9219 97.6268 18.7519 97.1568 18.7519C96.6968 18.7519 96.2568 18.9169 95.8368 19.2469C95.4268 19.5669 95.0768 19.9469 94.7868 20.3869V25.5469H93.4368ZM102.314 25.5469V17.7469H103.664V25.5469H102.314ZM102.989 16.4119C102.729 16.4119 102.504 16.3169 102.314 16.1269C102.134 15.9369 102.044 15.7169 102.044 15.4669C102.044 15.1769 102.129 14.9469 102.299 14.7769C102.469 14.6069 102.699 14.5219 102.989 14.5219C103.249 14.5219 103.469 14.6169 103.649 14.8069C103.839 14.9869 103.934 15.2069 103.934 15.4669C103.934 15.7469 103.849 15.9769 103.679 16.1569C103.509 16.3269 103.279 16.4119 102.989 16.4119ZM106.064 25.5469V17.7469H107.369V19.0519C107.649 18.6319 108.004 18.2819 108.434 18.0019C108.874 17.7119 109.394 17.5669 109.994 17.5669C110.874 17.5669 111.529 17.8319 111.959 18.3619C112.399 18.8919 112.619 19.5919 112.619 20.4619V25.5469H111.269V20.6119C111.269 20.0519 111.134 19.6019 110.864 19.2619C110.604 18.9219 110.239 18.7519 109.769 18.7519C109.309 18.7519 108.874 18.9169 108.464 19.2469C108.054 19.5669 107.704 19.9469 107.414 20.3869V25.5469H106.064ZM117.806 29.0269C117.346 29.0269 116.896 28.9719 116.456 28.8619C116.026 28.7519 115.641 28.5869 115.301 28.3669L115.796 27.1969C116.036 27.3869 116.316 27.5419 116.636 27.6619C116.956 27.7919 117.346 27.8569 117.806 27.8569C118.516 27.8569 119.071 27.6669 119.471 27.2869C119.881 26.9169 120.086 26.3219 120.086 25.5019V24.5419C119.886 24.7819 119.596 25.0119 119.216 25.2319C118.846 25.4419 118.401 25.5469 117.881 25.5469C117.291 25.5469 116.731 25.3969 116.201 25.0969C115.671 24.7869 115.241 24.3369 114.911 23.7469C114.581 23.1569 114.416 22.4469 114.416 21.6169C114.416 20.8369 114.576 20.1419 114.896 19.5319C115.226 18.9219 115.666 18.4419 116.216 18.0919C116.766 17.7419 117.371 17.5669 118.031 17.5669C118.471 17.5669 118.871 17.6419 119.231 17.7919C119.591 17.9419 119.901 18.1269 120.161 18.3469V17.7469H121.391V25.3669C121.391 26.2269 121.241 26.9269 120.941 27.4669C120.641 28.0069 120.221 28.4019 119.681 28.6519C119.151 28.9019 118.526 29.0269 117.806 29.0269ZM118.181 24.3469C118.581 24.3469 118.941 24.2569 119.261 24.0769C119.581 23.8969 119.841 23.6869 120.041 23.4469V19.3669C119.821 19.2069 119.556 19.0619 119.246 18.9319C118.936 18.8019 118.576 18.7369 118.166 18.7369C117.756 18.7369 117.371 18.8469 117.011 19.0669C116.651 19.2869 116.356 19.6069 116.126 20.0269C115.906 20.4369 115.796 20.9419 115.796 21.5419C115.796 22.1119 115.906 22.6069 116.126 23.0269C116.356 23.4469 116.651 23.7719 117.011 24.0019C117.371 24.2319 117.761 24.3469 118.181 24.3469Z" fill="black"/>
<g clip-path="url(#clip0_2_313)">
<g clip-path="url(#clip1_2_313)">
<path d="M140.91 30.0136C140.534 30.0195 140.169 29.8815 139.89 29.6276C139.758 29.4978 139.653 29.3428 139.582 29.1716C139.511 29.0005 139.476 28.8169 139.477 28.6316C139.477 28.2566 139.623 27.9106 139.892 27.6536C140.303 27.2566 144.97 22.7966 146.386 21.4436H131.912C130.877 21.4436 130.406 20.7176 130.406 20.0436C130.406 19.3646 130.877 18.6376 131.912 18.6376H146.384C144.964 17.2846 140.364 12.9016 139.887 12.4246C139.595 12.1336 139.442 11.7896 139.445 11.4286C139.45 11.2444 139.493 11.0631 139.569 10.8956C139.646 10.728 139.756 10.5777 139.892 10.4536C140.393 9.97464 141.246 9.77264 141.929 10.4566C142.49 11.0166 151.694 19.7906 151.785 19.8796L151.958 20.0426L151.786 20.2046C151.693 20.2946 142.379 29.1896 141.926 29.6266C141.662 29.8846 141.287 30.0136 140.91 30.0136Z" fill="black"/>
</g>
</g>
<defs>
<clipPath id="clip0_2_313">
<rect width="22" height="21" fill="white" transform="translate(130.406 10.0156)"/>
</clipPath>
<clipPath id="clip1_2_313">
<rect width="22" height="21" fill="white" transform="translate(130.406 10.0156)"/>
</clipPath>
</defs>
</svg>
